<svg id="Camada_1" data-name="Camada 1" xmlns="http://www.w3.org/2000/svg" viewBox="0 0 42 42"><defs><style>.cls-1{fill:#672266;}</style></defs><g id="surface203130"><path class="cls-1" d="M9,4A5,5,0,0,0,4,9V41a5,5,0,0,0,5,5H41a5,5,0,0,0,5-5V9a5,5,0,0,0-5-5Zm3,14h6.73c.73,0,4.68-.05,4.68,3.57a3,3,0,0,1-1.9,2.86A3.43,3.43,0,0,1,24,28c0,3.83-4.39,4-5,4H12Zm17,0h7v2H29ZM15,20.43v3.28h3.22A1.79,1.79,0,0,0,20.12,22c0-1.47-1.9-1.57-2.19-1.57ZM32.73,21a5,5,0,0,1,5.12,3.76A10.58,10.58,0,0,1,38,27H30.1a2.69,2.69,0,0,0,2.79,2.83,2.76,2.76,0,0,0,1.55-.44,1.93,1.93,0,0,0,.77-.86h2.63a5.13,5.13,0,0,1-2,2.6,6,6,0,0,1-3.25.87,6.63,6.63,0,0,1-2.33-.44,6.87,6.87,0,0,1-1.7-1.15,5.12,5.12,0,0,1-1.08-1.74A5,5,0,0,1,27,26.5,5.35,5.35,0,0,1,32.73,21Zm0,2a2.62,2.62,0,0,0-2.63,2.31h5C34.9,24.62,34.25,23,32.73,23ZM15,25.71v3.86h3.35c.29,0,2.33-.09,2.33-1.86a2.05,2.05,0,0,0-2.33-2Z" transform="translate(-4 -4)"/></g></svg>