<?xml version="1.0" encoding="utf-8"?>
<!-- Generator: Adobe Illustrator 25.2.1, SVG Export Plug-In . SVG Version: 6.00 Build 0)  -->
<svg version="1.1" id="Camada_1" xmlns="http://www.w3.org/2000/svg" xmlns:xlink="http://www.w3.org/1999/xlink" x="0px" y="0px"
	 viewBox="0 0 50 50" style="enable-background:new 0 0 50 50;" xml:space="preserve">
<style type="text/css">
	.st0{fill:#672266;}
</style>
<g id="surface2461620">
	<path class="st0" d="M5,2C3.3,2,2,3.3,2,5v30c0,1.7,1.3,3,3,3h40c1.7,0,3-1.3,3-3V5c0-1.7-1.3-3-3-3H5z M7,7h36v26H7V7z M19.3,11.3
		l-8,8L10.6,20l0.7,0.7l8,8l1.4-1.4L13.4,20l7.3-7.3L19.3,11.3z M30.7,11.3l-1.4,1.4l7.3,7.3l-7.3,7.3l1.4,1.4l8-8l0.7-0.7l-0.7-0.7
		L30.7,11.3z M20,39v4h10v-4H20z M10,40c-0.3,0-0.6,0.1-0.8,0.3l-5,6c-0.2,0.3-0.3,0.7-0.1,1.1S4.6,48,5,48h40
		c0.4,0,0.7-0.2,0.9-0.6s0.1-0.8-0.1-1.1l-5-6C40.6,40.1,40.3,40,40,40h-8v5H18v-5H10z"/>
</g>
</svg>
