<svg id="Camada_1" data-name="Camada 1" xmlns="http://www.w3.org/2000/svg" viewBox="0 0 52 52"><defs><style>.cls-1{fill:#672266;}</style></defs><g id="surface205467"><path class="cls-1" d="M32,6A26,26,0,0,0,26,57.29c-.59-.15-1.17-.3-1.75-.48v-6a7.77,7.77,0,0,1-2.27.33c-3.64,0-5.15-3.25-5.53-4.88a5.13,5.13,0,0,0-1.47-2.51c-.77-.68-1.13-.68-1.13-.92,0-.49.66-.47,1-.47,1.63,0,2.86,1.73,3.43,2.62,1.42,2.21,2.94,2.58,3.73,2.58a5.89,5.89,0,0,0,2.39-.42A7.74,7.74,0,0,1,26.8,42.4C20.7,41.18,16.4,37.68,16.4,32a11.57,11.57,0,0,1,3.13-7.79A10.64,10.64,0,0,1,19,20.62a11.85,11.85,0,0,1,.65-4.22,11.6,11.6,0,0,1,7.21,3.34,18.22,18.22,0,0,1,10.28,0,11.6,11.6,0,0,1,7.21-3.34A11.63,11.63,0,0,1,45,20.62a12.66,12.66,0,0,1-.43,3.7,11.61,11.61,0,0,1,3,7.68c0,5.68-4.3,9.18-10.4,10.4a7.69,7.69,0,0,1,2.6,5.85v8.56c-.58.18-1.16.33-1.75.48A26,26,0,0,0,32,6Zm1.81,51.93c-.6,0-1.2.07-1.81.07C32.61,58,33.21,58,33.81,57.93Zm4-.58a26.42,26.42,0,0,1-3.58.55A26.42,26.42,0,0,0,37.79,57.35ZM32,58c-.61,0-1.21,0-1.81-.07C30.79,58,31.39,58,32,58Zm-2.21-.1a26.42,26.42,0,0,1-3.58-.55A26.42,26.42,0,0,0,29.79,57.9Z" transform="translate(-6 -6)"/></g></svg>