<svg id="Camada_1" data-name="Camada 1" xmlns="http://www.w3.org/2000/svg" viewBox="0 0 42 32"><defs><style>.cls-1{fill:#672266;}</style></defs><g id="surface176803"><path class="cls-1" d="M45,16.2,40,19,35,23.7V40h7a3,3,0,0,0,3-3Z" transform="translate(-3 -8)"/><path class="cls-1" d="M3,16.2l3.61,1.71L13,23.7V40H6a3,3,0,0,1-3-3Z" transform="translate(-3 -8)"/><path class="cls-1" d="M35,11.2,24,19.45,13,11.2,12,17l1,6.7L24,32,35,23.7,36,17Z" transform="translate(-3 -8)"/><path class="cls-1" d="M3,12.3v3.9l10,7.5V11.2L9.88,8.86A4.3,4.3,0,0,0,3,12.3Z" transform="translate(-3 -8)"/><path class="cls-1" d="M45,12.3v3.9L35,23.7V11.2l3.12-2.34A4.3,4.3,0,0,1,45,12.3Z" transform="translate(-3 -8)"/></g></svg>