<svg id="Camada_1" data-name="Camada 1" xmlns="http://www.w3.org/2000/svg" viewBox="0 0 41.07 46"><defs><style>.cls-1{fill:#672266;}</style></defs><g id="surface217649"><path class="cls-1" d="M45.27,2.32A1,1,0,0,0,44.54,2H5.46a1,1,0,0,0-1,1.09L8,42.52a1,1,0,0,0,.72.87l16,4.57A.86.86,0,0,0,25,48a.84.84,0,0,0,.27,0l16-4.57a1,1,0,0,0,.73-.87L45.53,3.09A1,1,0,0,0,45.27,2.32Zm-8.42,13.6H18L18.48,21H36.39l-1.34,15L25,39.09l-.1,0-9.94-3-.54-6.13h4.87l.21,2.38,5.56,1.16,5.46-1.16.58-6.44h-17L12.72,11.05H37.28Z" transform="translate(-4.46 -2)"/></g></svg>