<svg id="Camada_1" data-name="Camada 1" xmlns="http://www.w3.org/2000/svg" viewBox="0 0 42 42"><defs><style>.cls-1{fill:#672266;}</style></defs><g id="surface231096"><path class="cls-1" d="M43.34,4H6.67A2.68,2.68,0,0,0,4,6.67V43.33A2.68,2.68,0,0,0,6.67,46H43.33A2.67,2.67,0,0,0,46,43.34V6.67A2.67,2.67,0,0,0,43.34,4ZM27,36.18c0,4-2.34,5.82-5.77,5.82A7,7,0,0,1,15,38l3.14-1.9A3.29,3.29,0,0,0,21,38c1.27,0,2-.5,2-2.43V23h4ZM35.68,42A7,7,0,0,1,29,38l3-2c.82,1.34,1.71,2.61,3.59,2.61,1.58,0,2.41-.79,2.41-1.88,0-1.3-.86-1.77-2.6-2.53l-.95-.41c-2.75-1.17-4.59-2.64-4.59-5.75,0-2.86,2.19-5,5.59-5a5.64,5.64,0,0,1,5.43,3.05l-3,1.91a2.6,2.6,0,0,0-2.46-1.63A1.66,1.66,0,0,0,33.63,28c0,1.15.71,1.61,2.34,2.32l1,.41c3.24,1.39,5.07,2.81,5.07,6C42,40.12,39.3,42,35.68,42Z" transform="translate(-4 -4)"/></g></svg>