<svg id="Camada_1" data-name="Camada 1" xmlns="http://www.w3.org/2000/svg" viewBox="0 0 22 22"><defs><style>.cls-1{fill:#672266;}</style></defs><g id="surface234549"><path class="cls-1" d="M3.12,1a2,2,0,0,0-2,1.31A2.25,2.25,0,0,0,1,3.12,3.56,3.56,0,0,0,2,5.26l.18.24.16.21a4.13,4.13,0,0,1,.4.57c0,.06,0,.15.08.27A10.68,10.68,0,0,0,3.7,9c.19.32.45.73.64,1A15.62,15.62,0,0,0,4,12.5a5.83,5.83,0,0,0,.82,3.17A2.49,2.49,0,0,0,6.75,17a1.16,1.16,0,0,0,1.19-1.1A10.41,10.41,0,0,0,12,19s-3.75-4.38-4.41-7.1a7.28,7.28,0,0,0-1.32,2.21A4.11,4.11,0,0,1,6,12.5,18.08,18.08,0,0,1,6.38,10l.1-.42L6.23,9.2S5.72,8.47,5.43,8A8.62,8.62,0,0,1,4.71,6L4.55,5.5a5.25,5.25,0,0,0-.66-1l-.12-.17L3.53,4C3.34,3.79,3,3.36,3,3.08L3.12,3h0a5.28,5.28,0,0,1,2.21.78l.27.13L5.77,4h.34a9.28,9.28,0,0,1,2.77.43,7.71,7.71,0,0,1,3.7,2.68,19.9,19.9,0,0,1,3.19,7l.13.57.55.17a9.23,9.23,0,0,1,3,1.86A4.2,4.2,0,0,0,17,18a8,8,0,0,0,2.75,2.38A16.59,16.59,0,0,1,23,23a24.31,24.31,0,0,0-2.7-4.49A17.38,17.38,0,0,1,23,17.93l-.91-1.27a11,11,0,0,0-4.46-3.53,21.43,21.43,0,0,0-3.43-7.24A9.79,9.79,0,0,0,9.62,2.57,10.38,10.38,0,0,0,6.26,2,7,7,0,0,0,3.12,1ZM7.19,5a4.51,4.51,0,0,0-.94.12L7.62,7A2,2,0,0,0,8,5.92,1.79,1.79,0,0,0,7.19,5Z" transform="translate(-1 -1)"/></g></svg>