<svg id="Camada_1" data-name="Camada 1" xmlns="http://www.w3.org/2000/svg" viewBox="0 0 38 38"><defs><style>.cls-1{fill:#672266;}</style></defs><g id="surface214172"><path class="cls-1" d="M24.05,5a20.61,20.61,0,0,0-3.94.37C16.26,6,15.56,7.45,15.56,10v4h9v2H10.87c-2.64,0-4.94,1.24-5.67,4.22a16.63,16.63,0,0,0,0,9.12C5.85,32,7.29,34,9.93,34h3.63V28.89A6.11,6.11,0,0,1,19.33,23h7.23c2.53,0,5-1.86,5-4.38V10a4.75,4.75,0,0,0-4.22-4.68A17.18,17.18,0,0,0,24.05,5Zm-5,4a1.5,1.5,0,0,1,0,3,1.5,1.5,0,0,1,0-3Z" transform="translate(-4.56 -5)"/><path class="cls-1" d="M23.08,43A20.77,20.77,0,0,0,27,42.63c3.84-.67,4.54-2.08,4.54-4.67V34h-9V32h13.7a5.38,5.38,0,0,0,5.67-4.22,16.72,16.72,0,0,0,0-9.12C41.27,16,39.83,14,37.2,14H33.56v5.11A6.1,6.1,0,0,1,27.8,25H20.56c-2.52,0-5,1.86-5,4.38V38a4.75,4.75,0,0,0,4.22,4.68A17.48,17.48,0,0,0,23.08,43Zm5-4a1.5,1.5,0,0,1,0-3,1.5,1.5,0,1,1,0,3Z" transform="translate(-4.56 -5)"/></g></svg>