<svg id="Camada_1" data-name="Camada 1" xmlns="http://www.w3.org/2000/svg" viewBox="0 0 46 46"><defs><style>.cls-1{fill:#672266;}</style></defs><g id="surface435846"><path class="cls-1" d="M72,19A23,23,0,0,0,52,53.29L49,63.73A1,1,0,0,0,50,65a1,1,0,0,0,.24,0l10.9-2.7A23,23,0,1,0,72,19ZM83.57,50.12c-.49,1.36-2.85,2.6-4,2.77a8.29,8.29,0,0,1-3.73-.23,35.73,35.73,0,0,1-3.36-1.23C66.57,48.9,62.71,43,62.41,42.62S60,39.46,60,36.59a6.47,6.47,0,0,1,2.07-4.86A2.15,2.15,0,0,1,63.64,31c.4,0,.79,0,1.13,0s.85-.14,1.33,1,1.68,4,1.82,4.33a1.06,1.06,0,0,1,0,1,3.76,3.76,0,0,1-.59,1c-.29.34-.62.76-.88,1s-.61.61-.26,1.19a17.73,17.73,0,0,0,3.28,4,16.06,16.06,0,0,0,4.75,2.89c.59.3.93.24,1.28-.14s1.47-1.71,1.87-2.29.78-.49,1.33-.29,3.44,1.6,4,1.89,1,.44,1.13.68A4.82,4.82,0,0,1,83.57,50.12Z" transform="translate(-49 -19)"/></g></svg>