<svg id="Camada_1" data-name="Camada 1" xmlns="http://www.w3.org/2000/svg" viewBox="0 0 284.46 113.96"><defs><style>.cls-1{fill:#fff;}.cls-2,.cls-3{fill:#672266;}.cls-3{font-size:40px;font-family:Sheeping-Dogs, Sheeping Dogs;}</style></defs><path class="cls-1" d="M1331.17,838.93c-3.7,0-6.47,0-9.23,0-3,0-6,.14-9-.06-12.07-.82-14.4.73-19.85,11.42-5.76,11.32-12,22.39-18.38,34.22-1.36-2.38-2.19-3.8-3-5.25-6-10.93-11.79-22-18.12-32.73-1.72-2.93-4.86-6.72-7.67-7-9-.89-18.1-.33-27.89-.33,18.89,34.89,37.49,69.26,56.54,104.47C1293.64,908.39,1312.18,874.09,1331.17,838.93ZM1282.76,943h112.52l-57.77-103.24c-3.59,6.46-6.52,12.61-10.25,18.22-4.86,7.29-4.58,14-.16,21.37,6.18,10.24,11.87,20.78,17.73,31.21.74,1.32,1.25,2.78,2,4.49-1.44.12-2.09.21-2.75.21-13,0-25.93-.22-38.88.21-3.13.11-7.46,1.55-9,3.87C1291.22,926.7,1287.32,934.76,1282.76,943Z" transform="translate(-1218.04 -838.68)"/><path class="cls-2" d="M1331.17,838.93c-19,35.16-37.53,69.46-56.59,104.74-19-35.21-37.65-69.58-56.54-104.47,9.79,0,18.92-.56,27.89.33,2.81.28,6,4.07,7.67,7,6.33,10.74,12.12,21.8,18.12,32.73.8,1.45,1.63,2.87,3,5.25,6.38-11.83,12.62-22.9,18.38-34.22,5.45-10.69,7.78-12.24,19.85-11.42,3,.2,6,0,9,.06C1324.7,838.94,1327.47,838.93,1331.17,838.93Z" transform="translate(-1218.04 -838.68)"/><path class="cls-2" d="M1282.76,943c4.56-8.24,8.46-16.3,13.42-23.66,1.56-2.32,5.89-3.76,9-3.87,13-.43,25.92-.19,38.88-.21.66,0,1.31-.09,2.75-.21-.75-1.71-1.26-3.17-2-4.49-5.86-10.43-11.55-21-17.73-31.21-4.42-7.35-4.7-14.08.16-21.37,3.73-5.61,6.66-11.76,10.25-18.22L1395.28,943Z" transform="translate(-1218.04 -838.68)"/><text class="cls-3" transform="translate(184.46 103.96)">Code</text></svg>